<mxfile host="app.diagrams.net" modified="2022-02-21T12:29:32.129Z" agent="5.0 (Windows)" etag="K2ybs8QYp-OdcMzsi_h4" version="16.6.1" type="github">
  <diagram id="WlLERivJvHOrQGwCGo-z" name="Page-1">
    <mxGraphModel dx="1422" dy="772" grid="1" gridSize="10" guides="1" tooltips="1" connect="1" arrows="1" fold="1" page="1" pageScale="1" pageWidth="827" pageHeight="1169" math="0" shadow="0">
      <root>
        <mxCell id="0" />
        <mxCell id="1" parent="0" />
        <mxCell id="-C2Bd3RJ06ezDWMRbkp3-63" value="" style="rounded=1;whiteSpace=wrap;html=1;dashed=1;strokeWidth=2;fillColor=none;" parent="1" vertex="1">
          <mxGeometry x="441" y="289" width="950" height="630" as="geometry" />
        </mxCell>
        <mxCell id="-C2Bd3RJ06ezDWMRbkp3-73" value="" style="group" parent="1" vertex="1" connectable="0">
          <mxGeometry x="620" y="420" width="252" height="78.75" as="geometry" />
        </mxCell>
        <mxCell id="-C2Bd3RJ06ezDWMRbkp3-7" value="" style="shape=parallelogram;perimeter=parallelogramPerimeter;whiteSpace=wrap;html=1;fixedSize=1;dashed=1;" parent="-C2Bd3RJ06ezDWMRbkp3-73" vertex="1">
          <mxGeometry x="2" y="7.3500000000000005" width="250" height="71.4" as="geometry" />
        </mxCell>
        <mxCell id="-C2Bd3RJ06ezDWMRbkp3-36" value="A" style="ellipse;whiteSpace=wrap;html=1;" parent="-C2Bd3RJ06ezDWMRbkp3-73" vertex="1">
          <mxGeometry width="60" height="18.666666666666668" as="geometry" />
        </mxCell>
        <mxCell id="-C2Bd3RJ06ezDWMRbkp3-29" value="openCamera" style="edgeLabel;html=1;align=center;verticalAlign=middle;resizable=0;points=[];" parent="-C2Bd3RJ06ezDWMRbkp3-73" vertex="1" connectable="0">
          <mxGeometry x="60.00000000000023" y="18.670000000000016" as="geometry">
            <mxPoint x="-5" y="7" as="offset" />
          </mxGeometry>
        </mxCell>
        <mxCell id="-C2Bd3RJ06ezDWMRbkp3-101" value="messageToMon" style="edgeLabel;html=1;align=center;verticalAlign=middle;resizable=0;points=[];" parent="-C2Bd3RJ06ezDWMRbkp3-73" vertex="1" connectable="0">
          <mxGeometry x="140" y="70.00019115242867" as="geometry" />
        </mxCell>
        <mxCell id="-C2Bd3RJ06ezDWMRbkp3-72" value="" style="group" parent="1" vertex="1" connectable="0">
          <mxGeometry x="989" y="650" width="360.99689655172415" height="168.75" as="geometry" />
        </mxCell>
        <mxCell id="-C2Bd3RJ06ezDWMRbkp3-68" value="" style="shape=parallelogram;perimeter=parallelogramPerimeter;whiteSpace=wrap;html=1;fixedSize=1;dashed=1;" parent="-C2Bd3RJ06ezDWMRbkp3-72" vertex="1">
          <mxGeometry x="2" y="15.75" width="250" height="153" as="geometry" />
        </mxCell>
        <mxCell id="-C2Bd3RJ06ezDWMRbkp3-69" value="A" style="ellipse;whiteSpace=wrap;html=1;" parent="-C2Bd3RJ06ezDWMRbkp3-72" vertex="1">
          <mxGeometry width="60" height="40" as="geometry" />
        </mxCell>
        <mxCell id="-C2Bd3RJ06ezDWMRbkp3-100" value="messageToMon" style="edgeLabel;html=1;align=center;verticalAlign=middle;resizable=0;points=[];" parent="-C2Bd3RJ06ezDWMRbkp3-72" vertex="1" connectable="0">
          <mxGeometry x="60" y="60.00019115242867" as="geometry" />
        </mxCell>
        <mxCell id="-C2Bd3RJ06ezDWMRbkp3-105" value="Camera.Grab()" style="edgeLabel;html=1;align=center;verticalAlign=middle;resizable=0;points=[];" parent="-C2Bd3RJ06ezDWMRbkp3-72" vertex="1" connectable="0">
          <mxGeometry x="360.99689655172415" y="160" as="geometry">
            <mxPoint x="-164" y="-45" as="offset" />
          </mxGeometry>
        </mxCell>
        <mxCell id="-C2Bd3RJ06ezDWMRbkp3-108" value="Periodic" style="edgeLabel;html=1;align=center;verticalAlign=middle;resizable=0;points=[];" parent="-C2Bd3RJ06ezDWMRbkp3-72" vertex="1" connectable="0">
          <mxGeometry x="290.99689655172415" y="70" as="geometry">
            <mxPoint x="-164" y="-45" as="offset" />
          </mxGeometry>
        </mxCell>
        <mxCell id="-C2Bd3RJ06ezDWMRbkp3-117" value="th_Arena" style="edgeLabel;html=1;align=center;verticalAlign=middle;resizable=0;points=[];" parent="-C2Bd3RJ06ezDWMRbkp3-72" vertex="1" connectable="0">
          <mxGeometry x="101.00000000000023" y="10" as="geometry">
            <mxPoint x="-8" as="offset" />
          </mxGeometry>
        </mxCell>
        <mxCell id="-C2Bd3RJ06ezDWMRbkp3-71" value="" style="group" parent="1" vertex="1" connectable="0">
          <mxGeometry x="1000" y="456.63" width="252" height="168.75" as="geometry" />
        </mxCell>
        <mxCell id="-C2Bd3RJ06ezDWMRbkp3-66" value="" style="shape=parallelogram;perimeter=parallelogramPerimeter;whiteSpace=wrap;html=1;fixedSize=1;dashed=1;" parent="-C2Bd3RJ06ezDWMRbkp3-71" vertex="1">
          <mxGeometry x="2" y="15.75" width="250" height="153" as="geometry" />
        </mxCell>
        <mxCell id="-C2Bd3RJ06ezDWMRbkp3-67" value="100ms" style="ellipse;whiteSpace=wrap;html=1;" parent="-C2Bd3RJ06ezDWMRbkp3-71" vertex="1">
          <mxGeometry width="60" height="40" as="geometry" />
        </mxCell>
        <mxCell id="-C2Bd3RJ06ezDWMRbkp3-86" value="periodic_image" style="edgeLabel;html=1;align=center;verticalAlign=middle;resizable=0;points=[];" parent="-C2Bd3RJ06ezDWMRbkp3-71" vertex="1" connectable="0">
          <mxGeometry x="57.99934664707871" y="48.36846132510232" as="geometry" />
        </mxCell>
        <mxCell id="-C2Bd3RJ06ezDWMRbkp3-39" value="Camera.Grab()" style="edgeLabel;html=1;align=center;verticalAlign=middle;resizable=0;points=[];" parent="-C2Bd3RJ06ezDWMRbkp3-71" vertex="1" connectable="0">
          <mxGeometry x="204.99689655172415" y="60.370000000000005" as="geometry" />
        </mxCell>
        <mxCell id="-C2Bd3RJ06ezDWMRbkp3-99" value="messageToMon" style="edgeLabel;html=1;align=center;verticalAlign=middle;resizable=0;points=[];" parent="-C2Bd3RJ06ezDWMRbkp3-71" vertex="1" connectable="0">
          <mxGeometry x="50" y="128.37019115242867" as="geometry" />
        </mxCell>
        <mxCell id="-C2Bd3RJ06ezDWMRbkp3-109" value="Periodic" style="edgeLabel;html=1;align=center;verticalAlign=middle;resizable=0;points=[];" parent="-C2Bd3RJ06ezDWMRbkp3-71" vertex="1" connectable="0">
          <mxGeometry x="195.99689655172415" y="156.37" as="geometry">
            <mxPoint x="-164" y="-45" as="offset" />
          </mxGeometry>
        </mxCell>
        <mxCell id="-C2Bd3RJ06ezDWMRbkp3-119" value="th_periodicImg" style="edgeLabel;html=1;align=center;verticalAlign=middle;resizable=0;points=[];" parent="-C2Bd3RJ06ezDWMRbkp3-71" vertex="1" connectable="0">
          <mxGeometry x="103.00000000000023" y="6.75" as="geometry">
            <mxPoint x="-12" as="offset" />
          </mxGeometry>
        </mxCell>
        <mxCell id="-C2Bd3RJ06ezDWMRbkp3-70" value="" style="group" parent="1" vertex="1" connectable="0">
          <mxGeometry x="610" y="560" width="252" height="200.00019115242867" as="geometry" />
        </mxCell>
        <mxCell id="-C2Bd3RJ06ezDWMRbkp3-64" value="" style="shape=parallelogram;perimeter=parallelogramPerimeter;whiteSpace=wrap;html=1;fixedSize=1;dashed=1;" parent="-C2Bd3RJ06ezDWMRbkp3-70" vertex="1">
          <mxGeometry x="2" y="193.26666666666668" width="250" height="99.73333333333335" as="geometry" />
        </mxCell>
        <mxCell id="-C2Bd3RJ06ezDWMRbkp3-65" value="A" style="ellipse;whiteSpace=wrap;html=1;" parent="-C2Bd3RJ06ezDWMRbkp3-70" vertex="1">
          <mxGeometry y="183" width="60" height="26.074074074074076" as="geometry" />
        </mxCell>
        <mxCell id="-C2Bd3RJ06ezDWMRbkp3-58" value="closeCamera" style="edgeLabel;html=1;align=center;verticalAlign=middle;resizable=0;points=[];" parent="-C2Bd3RJ06ezDWMRbkp3-70" vertex="1" connectable="0">
          <mxGeometry x="52.00000000000023" y="228.62962962962962" as="geometry">
            <mxPoint x="-5" y="7" as="offset" />
          </mxGeometry>
        </mxCell>
        <mxCell id="-C2Bd3RJ06ezDWMRbkp3-18" style="rounded=0;orthogonalLoop=1;jettySize=auto;html=1;startArrow=classic;startFill=1;endArrow=none;endFill=0;strokeColor=#000000;strokeWidth=1;dashed=1;" parent="-C2Bd3RJ06ezDWMRbkp3-70" edge="1">
          <mxGeometry relative="1" as="geometry">
            <mxPoint x="240" y="273" as="targetPoint" />
            <mxPoint x="810" y="273" as="sourcePoint" />
          </mxGeometry>
        </mxCell>
        <mxCell id="-C2Bd3RJ06ezDWMRbkp3-19" value="Camera.Close()" style="edgeLabel;html=1;align=center;verticalAlign=middle;resizable=0;points=[];" parent="-C2Bd3RJ06ezDWMRbkp3-18" vertex="1" connectable="0">
          <mxGeometry x="0.5687" y="-4" relative="1" as="geometry">
            <mxPoint x="-173" y="3" as="offset" />
          </mxGeometry>
        </mxCell>
        <mxCell id="-C2Bd3RJ06ezDWMRbkp3-102" value="messageToMon" style="edgeLabel;html=1;align=center;verticalAlign=middle;resizable=0;points=[];" parent="-C2Bd3RJ06ezDWMRbkp3-70" vertex="1" connectable="0">
          <mxGeometry x="150" y="200.00019115242867" as="geometry" />
        </mxCell>
        <mxCell id="-C2Bd3RJ06ezDWMRbkp3-116" value="th_closeCamera" style="edgeLabel;html=1;align=center;verticalAlign=middle;resizable=0;points=[];" parent="-C2Bd3RJ06ezDWMRbkp3-70" vertex="1" connectable="0">
          <mxGeometry x="100.00000000000023" y="180" as="geometry">
            <mxPoint x="-8" as="offset" />
          </mxGeometry>
        </mxCell>
        <mxCell id="-C2Bd3RJ06ezDWMRbkp3-2" style="edgeStyle=orthogonalEdgeStyle;rounded=0;orthogonalLoop=1;jettySize=auto;html=1;strokeColor=default;dashed=1;" parent="1" edge="1">
          <mxGeometry relative="1" as="geometry">
            <mxPoint x="1420" y="520" as="targetPoint" />
            <Array as="points">
              <mxPoint x="1290.67" y="520" />
              <mxPoint x="1290.67" y="520" />
            </Array>
            <mxPoint x="1249.9964248704664" y="520" as="sourcePoint" />
          </mxGeometry>
        </mxCell>
        <mxCell id="-C2Bd3RJ06ezDWMRbkp3-16" style="rounded=0;orthogonalLoop=1;jettySize=auto;html=1;startArrow=classic;startFill=1;endArrow=none;endFill=0;strokeColor=#000000;strokeWidth=1;dashed=1;" parent="1" edge="1">
          <mxGeometry relative="1" as="geometry">
            <mxPoint x="864" y="449" as="targetPoint" />
            <mxPoint x="1414" y="449" as="sourcePoint" />
          </mxGeometry>
        </mxCell>
        <mxCell id="-C2Bd3RJ06ezDWMRbkp3-17" value="Camera.Open()" style="edgeLabel;html=1;align=center;verticalAlign=middle;resizable=0;points=[];" parent="-C2Bd3RJ06ezDWMRbkp3-16" vertex="1" connectable="0">
          <mxGeometry x="0.5687" y="-4" relative="1" as="geometry">
            <mxPoint x="-156" y="1" as="offset" />
          </mxGeometry>
        </mxCell>
        <mxCell id="-C2Bd3RJ06ezDWMRbkp3-21" style="rounded=0;orthogonalLoop=1;jettySize=auto;html=1;entryX=0;entryY=0.25;entryDx=0;entryDy=0;dashed=1;strokeColor=default;" parent="1" target="-C2Bd3RJ06ezDWMRbkp3-7" edge="1">
          <mxGeometry relative="1" as="geometry">
            <mxPoint x="410" y="447" as="sourcePoint" />
          </mxGeometry>
        </mxCell>
        <mxCell id="-C2Bd3RJ06ezDWMRbkp3-26" value="th_group_gestion_vision" style="edgeLabel;html=1;align=center;verticalAlign=middle;resizable=0;points=[];" parent="1" vertex="1" connectable="0">
          <mxGeometry x="700.0000000000002" y="270" as="geometry">
            <mxPoint x="-8" as="offset" />
          </mxGeometry>
        </mxCell>
        <mxCell id="-C2Bd3RJ06ezDWMRbkp3-40" value="Camera.Grab()" style="edgeLabel;html=1;align=center;verticalAlign=middle;resizable=0;points=[];" parent="1" vertex="1" connectable="0">
          <mxGeometry x="1599.9968965517241" y="550" as="geometry">
            <mxPoint x="-164" y="-45" as="offset" />
          </mxGeometry>
        </mxCell>
        <mxCell id="-C2Bd3RJ06ezDWMRbkp3-47" style="edgeStyle=orthogonalEdgeStyle;rounded=0;orthogonalLoop=1;jettySize=auto;html=1;strokeColor=default;strokeWidth=1;startArrow=classic;startFill=1;endArrow=none;endFill=0;" parent="1" edge="1">
          <mxGeometry relative="1" as="geometry">
            <mxPoint x="1420" y="550" as="targetPoint" />
            <Array as="points">
              <mxPoint x="1370" y="550" />
            </Array>
            <mxPoint x="1241" y="550" as="sourcePoint" />
          </mxGeometry>
        </mxCell>
        <mxCell id="-C2Bd3RJ06ezDWMRbkp3-48" value="Image" style="edgeLabel;html=1;align=center;verticalAlign=middle;resizable=0;points=[];" parent="-C2Bd3RJ06ezDWMRbkp3-47" vertex="1" connectable="0">
          <mxGeometry x="-0.3302" y="-1" relative="1" as="geometry">
            <mxPoint x="9" y="-13" as="offset" />
          </mxGeometry>
        </mxCell>
        <mxCell id="-C2Bd3RJ06ezDWMRbkp3-51" value="Image" style="edgeLabel;html=1;align=center;verticalAlign=middle;resizable=0;points=[];" parent="-C2Bd3RJ06ezDWMRbkp3-47" vertex="1" connectable="0">
          <mxGeometry x="-0.673" y="-2" relative="1" as="geometry">
            <mxPoint x="-46" y="-2" as="offset" />
          </mxGeometry>
        </mxCell>
        <mxCell id="-C2Bd3RJ06ezDWMRbkp3-57" style="rounded=0;orthogonalLoop=1;jettySize=auto;html=1;dashed=1;strokeColor=default;entryX=0.04;entryY=0.445;entryDx=0;entryDy=0;entryPerimeter=0;" parent="1" target="-C2Bd3RJ06ezDWMRbkp3-64" edge="1">
          <mxGeometry relative="1" as="geometry">
            <mxPoint x="414" y="798" as="sourcePoint" />
            <mxPoint x="624" y="826.88" as="targetPoint" />
            <Array as="points" />
          </mxGeometry>
        </mxCell>
        <mxCell id="-C2Bd3RJ06ezDWMRbkp3-77" style="rounded=0;orthogonalLoop=1;jettySize=auto;html=1;startArrow=none;startFill=0;endArrow=classic;endFill=1;strokeColor=#000000;strokeWidth=1;exitX=0.58;exitY=0.002;exitDx=0;exitDy=0;edgeStyle=orthogonalEdgeStyle;exitPerimeter=0;" parent="1" source="-C2Bd3RJ06ezDWMRbkp3-64" edge="1">
          <mxGeometry relative="1" as="geometry">
            <mxPoint x="410" y="530" as="targetPoint" />
            <mxPoint x="720" y="728.749" as="sourcePoint" />
            <Array as="points">
              <mxPoint x="760" y="754" />
              <mxPoint x="760" y="530" />
            </Array>
          </mxGeometry>
        </mxCell>
        <mxCell id="-C2Bd3RJ06ezDWMRbkp3-78" value="messageToMon" style="edgeLabel;html=1;align=center;verticalAlign=middle;resizable=0;points=[];" parent="-C2Bd3RJ06ezDWMRbkp3-77" vertex="1" connectable="0">
          <mxGeometry x="-0.3815" relative="1" as="geometry">
            <mxPoint x="-300" y="-61" as="offset" />
          </mxGeometry>
        </mxCell>
        <mxCell id="-C2Bd3RJ06ezDWMRbkp3-79" style="edgeStyle=orthogonalEdgeStyle;rounded=0;orthogonalLoop=1;jettySize=auto;html=1;exitX=0.52;exitY=1;exitDx=0;exitDy=0;startArrow=none;startFill=0;endArrow=classic;endFill=1;exitPerimeter=0;" parent="1" source="-C2Bd3RJ06ezDWMRbkp3-7" edge="1">
          <mxGeometry relative="1" as="geometry">
            <mxPoint x="410" y="530" as="targetPoint" />
            <Array as="points">
              <mxPoint x="760" y="530" />
            </Array>
          </mxGeometry>
        </mxCell>
        <mxCell id="-C2Bd3RJ06ezDWMRbkp3-80" style="edgeStyle=orthogonalEdgeStyle;rounded=0;orthogonalLoop=1;jettySize=auto;html=1;exitX=1;exitY=0.5;exitDx=0;exitDy=0;entryX=0.068;entryY=0.226;entryDx=0;entryDy=0;startArrow=none;startFill=0;endArrow=classic;endFill=1;dashed=1;entryPerimeter=0;" parent="1" source="-C2Bd3RJ06ezDWMRbkp3-7" target="-C2Bd3RJ06ezDWMRbkp3-66" edge="1">
          <mxGeometry relative="1" as="geometry">
            <Array as="points">
              <mxPoint x="940" y="463" />
              <mxPoint x="940" y="508" />
            </Array>
          </mxGeometry>
        </mxCell>
        <mxCell id="-C2Bd3RJ06ezDWMRbkp3-84" value="periodic_image" style="edgeLabel;html=1;align=center;verticalAlign=middle;resizable=0;points=[];" parent="-C2Bd3RJ06ezDWMRbkp3-80" vertex="1" connectable="0">
          <mxGeometry x="-0.4057" y="-1" relative="1" as="geometry">
            <mxPoint x="-100" y="-2" as="offset" />
          </mxGeometry>
        </mxCell>
        <mxCell id="-C2Bd3RJ06ezDWMRbkp3-81" style="edgeStyle=orthogonalEdgeStyle;rounded=0;orthogonalLoop=1;jettySize=auto;html=1;exitX=1;exitY=0.75;exitDx=0;exitDy=0;startArrow=none;startFill=0;endArrow=classic;endFill=1;entryX=0.032;entryY=0.645;entryDx=0;entryDy=0;entryPerimeter=0;" parent="1" source="-C2Bd3RJ06ezDWMRbkp3-7" target="-C2Bd3RJ06ezDWMRbkp3-66" edge="1">
          <mxGeometry relative="1" as="geometry">
            <mxPoint x="992" y="550" as="targetPoint" />
            <Array as="points">
              <mxPoint x="900" y="479" />
              <mxPoint x="900" y="571" />
            </Array>
          </mxGeometry>
        </mxCell>
        <mxCell id="-C2Bd3RJ06ezDWMRbkp3-106" style="edgeStyle=orthogonalEdgeStyle;rounded=0;orthogonalLoop=1;jettySize=auto;html=1;exitX=0.5;exitY=1;exitDx=0;exitDy=0;entryX=0.5;entryY=0;entryDx=0;entryDy=0;startArrow=none;startFill=0;endArrow=classic;endFill=1;" parent="1" source="-C2Bd3RJ06ezDWMRbkp3-82" target="-C2Bd3RJ06ezDWMRbkp3-68" edge="1">
          <mxGeometry relative="1" as="geometry">
            <Array as="points">
              <mxPoint x="900" y="540" />
              <mxPoint x="900" y="640" />
              <mxPoint x="1116" y="640" />
            </Array>
          </mxGeometry>
        </mxCell>
        <mxCell id="-C2Bd3RJ06ezDWMRbkp3-82" value="Periodic" style="rounded=0;whiteSpace=wrap;html=1;" parent="1" vertex="1">
          <mxGeometry x="850" y="510" width="90" height="30" as="geometry" />
        </mxCell>
        <mxCell id="-C2Bd3RJ06ezDWMRbkp3-88" value="Camera.Open()" style="edgeLabel;html=1;align=center;verticalAlign=middle;resizable=0;points=[];" parent="1" vertex="1" connectable="0">
          <mxGeometry x="1439.9993466470787" y="429.9984613251023" as="geometry" />
        </mxCell>
        <mxCell id="-C2Bd3RJ06ezDWMRbkp3-90" value="Camera.Close()" style="edgeLabel;html=1;align=center;verticalAlign=middle;resizable=0;points=[];" parent="1" vertex="1" connectable="0">
          <mxGeometry x="1440" y="820" as="geometry" />
        </mxCell>
        <mxCell id="-C2Bd3RJ06ezDWMRbkp3-91" style="edgeStyle=orthogonalEdgeStyle;rounded=0;orthogonalLoop=1;jettySize=auto;html=1;startArrow=none;startFill=0;endArrow=classic;endFill=1;entryX=0.5;entryY=0;entryDx=0;entryDy=0;" parent="1" edge="1">
          <mxGeometry relative="1" as="geometry">
            <mxPoint x="1137" y="260" as="sourcePoint" />
            <mxPoint x="1137" y="472.3800000000001" as="targetPoint" />
            <Array as="points">
              <mxPoint x="1137" y="360" />
              <mxPoint x="1137" y="360" />
            </Array>
          </mxGeometry>
        </mxCell>
        <mxCell id="-C2Bd3RJ06ezDWMRbkp3-92" value="Position" style="rounded=0;whiteSpace=wrap;html=1;" parent="1" vertex="1">
          <mxGeometry x="1090" y="350" width="90" height="30" as="geometry" />
        </mxCell>
        <mxCell id="-C2Bd3RJ06ezDWMRbkp3-94" style="edgeStyle=orthogonalEdgeStyle;rounded=0;orthogonalLoop=1;jettySize=auto;html=1;strokeColor=default;strokeWidth=1;startArrow=classic;startFill=1;endArrow=none;endFill=0;exitX=1;exitY=0.5;exitDx=0;exitDy=0;" parent="1" source="-C2Bd3RJ06ezDWMRbkp3-68" edge="1">
          <mxGeometry relative="1" as="geometry">
            <mxPoint x="1350" y="550" as="targetPoint" />
            <Array as="points">
              <mxPoint x="1330" y="742" />
              <mxPoint x="1330" y="550" />
            </Array>
            <mxPoint x="1251" y="560" as="sourcePoint" />
          </mxGeometry>
        </mxCell>
        <mxCell id="-C2Bd3RJ06ezDWMRbkp3-96" value="Image" style="edgeLabel;html=1;align=center;verticalAlign=middle;resizable=0;points=[];" parent="-C2Bd3RJ06ezDWMRbkp3-94" vertex="1" connectable="0">
          <mxGeometry x="-0.673" y="-2" relative="1" as="geometry">
            <mxPoint x="-68" y="-4" as="offset" />
          </mxGeometry>
        </mxCell>
        <mxCell id="-C2Bd3RJ06ezDWMRbkp3-97" style="edgeStyle=orthogonalEdgeStyle;rounded=0;orthogonalLoop=1;jettySize=auto;html=1;exitX=0;exitY=0.75;exitDx=0;exitDy=0;startArrow=none;startFill=0;endArrow=classic;endFill=1;" parent="1" source="-C2Bd3RJ06ezDWMRbkp3-66" edge="1">
          <mxGeometry relative="1" as="geometry">
            <mxPoint x="409" y="530" as="targetPoint" />
            <mxPoint x="952" y="599.38" as="sourcePoint" />
            <Array as="points">
              <mxPoint x="1007" y="590" />
              <mxPoint x="760" y="590" />
              <mxPoint x="760" y="530" />
            </Array>
          </mxGeometry>
        </mxCell>
        <mxCell id="-C2Bd3RJ06ezDWMRbkp3-98" style="edgeStyle=orthogonalEdgeStyle;rounded=0;orthogonalLoop=1;jettySize=auto;html=1;startArrow=none;startFill=0;endArrow=classic;endFill=1;exitX=0;exitY=0.25;exitDx=0;exitDy=0;" parent="1" source="-C2Bd3RJ06ezDWMRbkp3-68" edge="1">
          <mxGeometry relative="1" as="geometry">
            <mxPoint x="410" y="530" as="targetPoint" />
            <mxPoint x="772" y="518.75" as="sourcePoint" />
            <Array as="points">
              <mxPoint x="830" y="708" />
              <mxPoint x="830" y="590" />
              <mxPoint x="760" y="590" />
              <mxPoint x="760" y="530" />
            </Array>
          </mxGeometry>
        </mxCell>
        <mxCell id="-C2Bd3RJ06ezDWMRbkp3-103" style="edgeStyle=orthogonalEdgeStyle;rounded=0;orthogonalLoop=1;jettySize=auto;html=1;strokeColor=default;dashed=1;" parent="1" edge="1">
          <mxGeometry relative="1" as="geometry">
            <mxPoint x="1420" y="770" as="targetPoint" />
            <Array as="points">
              <mxPoint x="1270.67" y="770" />
              <mxPoint x="1270.67" y="770" />
            </Array>
            <mxPoint x="1229.9964248704664" y="770" as="sourcePoint" />
          </mxGeometry>
        </mxCell>
        <mxCell id="-C2Bd3RJ06ezDWMRbkp3-104" value="Camera.Grab()" style="edgeLabel;html=1;align=center;verticalAlign=middle;resizable=0;points=[];" parent="1" vertex="1" connectable="0">
          <mxGeometry x="1599.9968965517241" y="800" as="geometry">
            <mxPoint x="-164" y="-45" as="offset" />
          </mxGeometry>
        </mxCell>
        <mxCell id="-C2Bd3RJ06ezDWMRbkp3-110" style="edgeStyle=orthogonalEdgeStyle;rounded=0;orthogonalLoop=1;jettySize=auto;html=1;exitX=0.024;exitY=0.645;exitDx=0;exitDy=0;startArrow=none;startFill=0;endArrow=classic;endFill=1;exitPerimeter=0;" parent="1" source="-C2Bd3RJ06ezDWMRbkp3-66" edge="1">
          <mxGeometry relative="1" as="geometry">
            <mxPoint x="900" y="540" as="targetPoint" />
            <Array as="points">
              <mxPoint x="900" y="571" />
            </Array>
          </mxGeometry>
        </mxCell>
        <mxCell id="-C2Bd3RJ06ezDWMRbkp3-111" style="edgeStyle=orthogonalEdgeStyle;rounded=0;orthogonalLoop=1;jettySize=auto;html=1;exitX=0.5;exitY=1;exitDx=0;exitDy=0;startArrow=classic;startFill=1;endArrow=none;endFill=0;dashed=1;" parent="1" source="-C2Bd3RJ06ezDWMRbkp3-68" edge="1">
          <mxGeometry relative="1" as="geometry">
            <mxPoint x="1116" y="940" as="targetPoint" />
          </mxGeometry>
        </mxCell>
        <mxCell id="-C2Bd3RJ06ezDWMRbkp3-113" value="Arena" style="edgeLabel;html=1;align=center;verticalAlign=middle;resizable=0;points=[];" parent="-C2Bd3RJ06ezDWMRbkp3-111" vertex="1" connectable="0">
          <mxGeometry x="-0.3031" y="-2" relative="1" as="geometry">
            <mxPoint as="offset" />
          </mxGeometry>
        </mxCell>
        <mxCell id="-C2Bd3RJ06ezDWMRbkp3-112" style="edgeStyle=orthogonalEdgeStyle;rounded=0;orthogonalLoop=1;jettySize=auto;html=1;exitX=0.5;exitY=1;exitDx=0;exitDy=0;startArrow=classic;startFill=1;endArrow=none;endFill=0;" parent="1" edge="1">
          <mxGeometry relative="1" as="geometry">
            <mxPoint x="1170" y="940" as="targetPoint" />
            <mxPoint x="1170" y="818.75" as="sourcePoint" />
            <Array as="points">
              <mxPoint x="1170" y="870" />
              <mxPoint x="1170" y="870" />
            </Array>
          </mxGeometry>
        </mxCell>
        <mxCell id="-C2Bd3RJ06ezDWMRbkp3-114" value="ArenaOk" style="rounded=0;whiteSpace=wrap;html=1;" parent="1" vertex="1">
          <mxGeometry x="1124.5" y="870" width="90" height="30" as="geometry" />
        </mxCell>
        <mxCell id="-C2Bd3RJ06ezDWMRbkp3-115" value="th_openCamera" style="edgeLabel;html=1;align=center;verticalAlign=middle;resizable=0;points=[];" parent="1" vertex="1" connectable="0">
          <mxGeometry x="746.0000000000002" y="410" as="geometry">
            <mxPoint x="-8" as="offset" />
          </mxGeometry>
        </mxCell>
        <mxCell id="-C2Bd3RJ06ezDWMRbkp3-120" value="Arena" style="edgeLabel;html=1;align=center;verticalAlign=middle;resizable=0;points=[];" parent="1" vertex="1" connectable="0">
          <mxGeometry x="1114" y="809.75" as="geometry" />
        </mxCell>
      </root>
    </mxGraphModel>
  </diagram>
</mxfile>
